<?xml version="1.0" encoding="UTF-8" standalone="no"?>
<!-- Created with Inkscape (http://www.inkscape.org/) -->

<svg
   xmlns:dc="http://purl.org/dc/elements/1.1/"
   xmlns:cc="http://creativecommons.org/ns#"
   xmlns:rdf="http://www.w3.org/1999/02/22-rdf-syntax-ns#"
   xmlns:svg="http://www.w3.org/2000/svg"
   xmlns="http://www.w3.org/2000/svg"
   xmlns:sodipodi="http://sodipodi.sourceforge.net/DTD/sodipodi-0.dtd"
   xmlns:inkscape="http://www.inkscape.org/namespaces/inkscape"
   width="210mm"
   height="297mm"
   viewBox="0 0 210 297"
   version="1.1"
   id="svg8"
   inkscape:version="0.92.4 (5da689c313, 2019-01-14)"
   sodipodi:docname="BasicItem.xaml"
   inkscape:dataloss="true">
  <defs
     id="defs2">
    <meshgradient
       inkscape:collect="always"
       id="meshgradient3753"
       gradientUnits="userSpaceOnUse"
       x="-60.084114"
       y="-53.930641"
       gradientTransform="matrix(3.7709736,-0.25413886,0.25413886,3.7709736,-3.7257081,1.9017175)">
      <meshrow
         id="meshrow3755">
        <meshpatch
           id="meshpatch3757">
          <stop
             path="c 44.7338,0  89.4677,0  134.201,0"
             style="stop-color:#ffffff;stop-opacity:1"
             id="stop3759" />
          <stop
             path="c 0,42.702  0,85.4039  0,128.106"
             style="stop-color:#800080;stop-opacity:1"
             id="stop3761" />
          <stop
             path="c -44.7338,0  -89.4677,0  -134.201,0"
             style="stop-color:#ffffff;stop-opacity:1"
             id="stop3763" />
          <stop
             path="c 0,-42.702  0,-85.4039  0,-128.106"
             style="stop-color:#800080;stop-opacity:1"
             id="stop3765" />
        </meshpatch>
      </meshrow>
    </meshgradient>
    <meshgradient
       inkscape:collect="always"
       id="meshgradient3785"
       gradientUnits="userSpaceOnUse"
       gradientTransform="matrix(3.7709736,-0.25413886,0.25413886,3.7709736,-3.7257081,1.9017175)"
       x="-60.084114"
       y="-53.930641">
      <meshrow
         id="meshrow3797">
        <meshpatch
           id="meshpatch3795">
          <stop
             id="stop3787"
             style="stop-color:#ffffff;stop-opacity:1"
             path="c 44.7338,0  89.4677,0  134.201,0" />
          <stop
             id="stop3789"
             style="stop-color:#800080;stop-opacity:1"
             path="c 0,42.702  0,85.4039  0,128.106" />
          <stop
             id="stop3791"
             style="stop-color:#ffffff;stop-opacity:1"
             path="c -44.7338,0  -89.4677,0  -134.201,0" />
          <stop
             id="stop3793"
             style="stop-color:#800080;stop-opacity:1"
             path="c 0,-42.702  0,-85.4039  0,-128.106" />
        </meshpatch>
      </meshrow>
    </meshgradient>
  </defs>
  <sodipodi:namedview
     id="base"
     pagecolor="#ffffff"
     bordercolor="#666666"
     borderopacity="1.0"
     inkscape:pageopacity="0.0"
     inkscape:pageshadow="2"
     inkscape:zoom="1.979899"
     inkscape:cx="382.88845"
     inkscape:cy="970.94984"
     inkscape:document-units="mm"
     inkscape:current-layer="layer1"
     showgrid="false"
     inkscape:window-width="1920"
     inkscape:window-height="1017"
     inkscape:window-x="1912"
     inkscape:window-y="-8"
     inkscape:window-maximized="1" />
  <metadata
     id="metadata5">
    <rdf:RDF>
      <cc:Work
         rdf:about="">
        <dc:format>image/svg+xml</dc:format>
        <dc:type
           rdf:resource="http://purl.org/dc/dcmitype/StillImage" />
        <dc:title></dc:title>
      </cc:Work>
    </rdf:RDF>
  </metadata>
  <g
     inkscape:label="Layer 1"
     inkscape:groupmode="layer"
     id="layer1">
    <path
       style="fill:#008000;stroke:#00ff00;stroke-width:1.55834818"
       id="path3745"
       sodipodi:type="arc"
       sodipodi:cx="66.81765"
       sodipodi:cy="46.107201"
       sodipodi:rx="39.442654"
       sodipodi:ry="36.827595"
       sodipodi:start="0"
       sodipodi:end="5.7178383"
       d="M 106.2603,46.107201 A 39.442654,36.827595 0 0 1 72.373805,82.567572 39.442654,36.827595 0 0 1 28.94035,56.379302 39.442654,36.827595 0 0 1 50.590197,12.540823 39.442654,36.827595 0 0 1 100.12314,26.378332 L 66.81765,46.107201 Z" />
    <path
       style="fill:#f2f2f2;stroke:#f2f2f2;stroke-width:0.26458332"
       id="path3747"
       sodipodi:type="arc"
       sodipodi:cx="98.622467"
       sodipodi:cy="37.347652"
       sodipodi:rx="21.247927"
       sodipodi:ry="19.377041"
       sodipodi:start="0"
       sodipodi:end="5.7178383"
       d="M 119.87039,37.347652 A 21.247927,19.377041 0 0 1 101.61559,56.531477 21.247927,19.377041 0 0 1 78.217803,42.752375 21.247927,19.377041 0 0 1 89.880669,19.686519 21.247927,19.377041 0 0 1 116.56427,26.9672 L 98.622467,37.347652 Z" />
    <path
       sodipodi:type="star"
       style="fill:#d40000;stroke:#008000;stroke-width:0.26458332"
       id="path3749"
       sodipodi:sides="10"
       sodipodi:cx="149.13638"
       sodipodi:cy="24.518717"
       sodipodi:r1="80.520905"
       sodipodi:r2="14.038195"
       sodipodi:arg1="0.90538637"
       sodipodi:arg2="3.0280112"
       inkscape:flatsided="false"
       inkscape:rounded="0"
       inkscape:randomized="0"
       d="M 198.84851,87.861594 135.18864,26.109769 152.12233,104.98424 136.91723,17.607629 104.25562,91.371789 143.31311,11.74529 73.531834,52.223738 151.93329,10.761965 71.686415,2.4933108 159.48514,15.033252 99.424252,-38.82416 l 63.659868,61.751824 -16.93369,-78.874469 15.20511,87.376609 32.66161,-73.764159 -39.0575,79.626499 69.78128,-40.4784484 -78.40145,41.4617724 80.24687,8.268655 -87.79873,-12.539942 z"
       inkscape:transform-center-x="0.71322075"
       inkscape:transform-center-y="-3.0781617" />
    <path
       style="fill:url(#meshgradient3785);fill-opacity:1;fill-rule:evenodd;stroke:#000000;stroke-width:0.99999994"
       d="M 17.955078 -203.40039 C -15.384995 -203.15618 -49.054953 -196.297 -81.146484 -181.98047 C -202.97457 -127.63107 -262.17963 19.209268 -207.2793 141.81836 C -155.30471 257.89337 -15.248328 314.27133 101.60352 261.73633 C 108.30336 258.72417 114.78249 255.38892 121.05273 251.7832 C 118.50917 246.0336 116.08864 240.22892 113.66602 234.42578 C 112.51969 231.67989 109.23108 223.37032 107.24219 220.07812 C 106.49025 218.83346 105.45413 217.78395 104.56055 216.63672 C 103.45786 215.69565 102.40314 214.69806 101.25391 213.81445 C 100.7132 213.39872 99.738008 212.71576 98.673828 211.98242 C 93.996931 214.68147 89.176172 217.19322 84.199219 219.47852 C -9.6206168 262.55822 -122.54953 217.47901 -165.01953 124.41406 C -210.46194 24.83567 -162.55923 -94.873576 -63.742188 -139.7207 C 41.594353 -187.52664 168.08506 -136.79797 215.30859 -32.228516 C 238.46129 19.039673 239.5096 75.026322 223.09766 125.33789 L 266.93555 141.08398 C 287.36866 78.948276 284.15762 10.168922 257.56836 -49.634766 C 215.0255 -145.32076 117.9753 -204.13301 17.955078 -203.40039 z M 223.09766 125.33789 L 180.25977 109.95117 C 167.69171 149.55772 141.52018 184.8877 105.31836 207.96875 C 105.52282 208.12288 105.82234 208.33149 105.97852 208.45703 C 107.47841 209.66275 108.83269 211.039 110.25977 212.33008 C 111.38999 213.86142 112.67127 215.29369 113.65039 216.92578 C 115.69278 220.33024 119.01833 228.70604 120.26172 231.68555 C 122.55128 237.17198 124.83633 242.66099 127.23047 248.10156 C 173.36821 219.52504 206.8233 175.22769 223.09766 125.33789 z M 180.25977 109.95117 C 192.94097 69.988014 191.77527 25.671223 173.05078 -14.824219 C 135.33777 -96.386122 35.963207 -135.82038 -46.337891 -97.462891 C -122.14903 -62.130135 -158.76017 30.467153 -122.76172 107.00781 C -91.845833 172.74181 -14.385211 206.54567 53.523438 182.68555 C 53.373506 182.58057 53.228207 182.47006 53.101562 182.33789 C 52.546536 181.75866 52.13684 181.05688 51.654297 180.41602 C 51.02648 178.92437 51.522931 180.18447 51.978516 180.81445 C 52.090805 180.96972 52.273367 181.06015 52.419922 181.18359 C 57.152059 185.16959 51.997813 174.31581 54.480469 174.30664 C 54.835134 174.30533 55.345071 174.52474 56.0625 175.04102 C 57.402617 176.0054 56.815484 175.49916 57.84375 176.93945 C 58.912921 177.68181 58.640777 177.51559 57.970703 177.08203 C 58.000596 177.13401 58.009506 177.15248 58.027344 177.18555 C 58.505999 177.52696 59.142254 177.97552 60.980469 179.24414 C 61.172921 179.37696 61.312647 179.46433 61.494141 179.58789 C 63.268859 178.83534 65.037714 178.05395 66.794922 177.21875 C 101.70906 160.62412 126.78914 129.73813 137.42383 94.566406 L 94.568359 79.173828 C 88.204762 102.58004 72.058504 123.44259 49.388672 134.96094 C 1.672278 159.20523 -57.103599 136.67528 -80.501953 89.603516 C -107.08865 36.117591 -81.748361 -29.411282 -28.931641 -55.203125 C 30.320739 -84.137675 102.60988 -55.983466 130.79102 2.5800781 C 145.09238 32.299908 146.37821 64.951895 137.42383 94.566406 L 180.25977 109.95117 z M 94.568359 79.173828 C 99.806236 59.908173 98.425026 38.920674 88.533203 19.984375 C 69.941577 -15.606295 24.634089 -32.531573 -11.527344 -12.945312 C -41.384843 3.2265232 -55.52488 41.830177 -38.244141 72.199219 C -24.511807 96.332316 7.4286613 107.70648 31.984375 92.701172 C 42.412805 86.328651 49.706797 75.439097 51.757812 63.796875 L 14.580078 50.443359 C 17.198019 56.799725 7.3036686 57.10867 4.015625 54.794922 C -4.8947699 48.524807 -1.2352405 35.291109 5.8769531 29.314453 C 18.598999 18.623617 37.560627 24.649523 46.273438 37.390625 C 51.822253 45.504889 53.330259 54.871167 51.757812 63.796875 L 94.568359 79.173828 z M 58.027344 177.18555 C 58.023961 177.18313 58.009191 177.17424 58.005859 177.17188 C 58.033133 177.20905 58.035315 177.21453 58.064453 177.25391 C 58.07979 177.27463 58.039102 177.20734 58.027344 177.18555 z M 58.005859 177.17188 C 57.965989 177.11751 57.957964 177.10067 57.921875 177.05078 C 57.378754 176.69975 57.304494 176.67127 58.005859 177.17188 z M 57.921875 177.05078 C 57.942381 177.06403 57.949977 177.06862 57.970703 177.08203 C 57.959409 177.06239 57.956271 177.05595 57.949219 177.04297 C 57.926414 177.02605 57.911434 177.01465 57.880859 176.99219 C 57.897526 177.01538 57.90436 177.02657 57.921875 177.05078 z "
       transform="scale(0.26458333)"
       id="path3751" />
    <path
       style="fill:#ff0000;fill-opacity:1;fill-rule:nonzero;stroke:none"
       id="path3780"
       d="m 33.739641,70.2589 c -1.356566,-2.684201 -2.507837,-5.46081 -3.66549,-8.233841 -0.303298,-0.726518 -1.173493,-2.924858 -1.699722,-3.795919 -0.19895,-0.32932 -0.472854,-0.607077 -0.709281,-0.910615 -0.291752,-0.24899 -0.571186,-0.513183 -0.875255,-0.746971 -0.424785,-0.326601 -1.765228,-1.220258 -2.209103,-1.511622 -0.677898,-0.444978 -1.351016,-0.898511 -2.048836,-1.31127 -0.723717,-0.201917 -1.443783,-0.257361 -2.114545,-0.642503 -0.315491,-0.181151 -0.588268,-0.428633 -0.87197,-0.656367 -0.612207,-0.491431 -0.954257,-0.833281 -1.525462,-1.369523 -0.89733,-0.800595 -1.944066,-1.399125 -2.928884,-2.07935 -0.241335,-0.166693 -0.472587,-0.347536 -0.709828,-0.520007 -0.109919,-0.07991 -0.237614,-0.139002 -0.331635,-0.237123 -0.146851,-0.153254 -0.255345,-0.339126 -0.383018,-0.508689 -0.16611,-0.394665 -0.03426,-0.06142 0.08628,0.105262 0.02971,0.04108 0.07755,0.06532 0.116326,0.09798 1.430908,1.205288 -0.554446,-2.718259 0.964112,-1.625466 v 0 c 0.384068,0.276386 0.146812,0.06841 0.529389,0.585408 0.01254,0.01694 -0.02012,-0.03704 -0.03018,-0.05556 -0.06114,-0.04536 -0.24617,-0.179162 -0.183418,-0.136066 1.433012,0.984168 -1.35009,-0.893266 0.985083,0.718326 0.901653,0.622264 1.32193,0.836586 2.22191,1.505588 0.329451,0.244898 0.639102,0.515364 0.958653,0.773045 1.173127,1.10561 0.181288,0.190305 1.414927,1.273358 0.146066,0.128236 0.26957,0.284798 0.431753,0.391927 0.710467,0.469295 1.603467,0.324098 2.33701,0.755713 0.724432,0.433363 1.426876,0.900471 2.132526,1.364093 0.536051,0.352192 1.934039,1.283698 2.409294,1.66574 0.396847,0.319012 0.755162,0.683195 1.132743,1.024792 0.299039,0.405167 0.638058,0.783676 0.897117,1.215501 0.540383,0.900764 1.420331,3.117017 1.749311,3.905346 1.140317,2.732521 2.273862,5.468766 3.610552,8.11363 0.843879,1.669756 -0.846484,2.514937 -1.690361,0.845181 z"
       inkscape:connector-curvature="0" />
  </g>
</svg>
